<svg xmlns="http://www.w3.org/2000/svg" viewBox="0 0 16 16" class="design-iconfont"><path d="M9.13333333,16 C8.46666666,16 7.93333333,15.4666667 7.93333333,14.8 L7.93333333,14.2666667 L4.6,14.2666667 C4,14.2666667 3.46666667,13.8 3.4,13.1333333 L3.4,4.66666667 L1.2,4.66666667 C0.533333328,4.66666667 0,4.13333333 0,3.46666667 L0,1.2 C0,0.533333328 0.533333328,0 1.2,0 L6.86666667,0 C7.53333334,0 8.06666667,0.533333328 8.06666667,1.2 L8.06666667,3.46666667 C8.06666667,4.13333334 7.53333334,4.66666667 6.86666667,4.66666667 L4.66666667,4.66666667 L4.66666667,7.33333333 L7.93333333,7.33333333 L7.93333333,6.86666667 C7.93333333,6.2 8.46666666,5.66666667 9.13333333,5.66666667 L14.8,5.66666667 C15.4666667,5.66666667 16,6.2 16,6.86666667 L16,9.13333333 C16,9.8 15.4666667,10.3333333 14.8,10.3333333 L9.13333333,10.3333333 C8.46666666,10.3333333 7.93333333,9.8 7.93333333,9.13333333 L7.93333333,8.6 L4.66666667,8.6 L4.66666667,13 L7.93333333,13 L7.93333333,12.5333333 C7.93333333,11.8666667 8.46666666,11.3333333 9.13333333,11.3333333 L14.8,11.3333333 C15.4666667,11.3333333 16,11.8666667 16,12.5333333 L16,14.8 C16,15.4666667 15.4666667,16 14.8,16 L9.13333333,16 Z M14.7333333,14.7333333 L14.7333333,12.6 L9.2,12.6 L9.2,14.7333333 L14.7333333,14.7333333 Z M14.7333333,9.06666667 L14.7333333,6.93333333 L9.2,6.93333333 L9.2,9.06666667 L14.7333333,9.06666667 Z M6.8,3.4 L6.8,1.26666667 L1.26666667,1.26666667 L1.26666667,3.4 L6.8,3.4 Z" fill="#999" fill-rule="nonzero"></path></svg>