<?xml version="1.0" encoding="UTF-8"?>
<svg width="16px" height="16px" viewBox="0 0 16 16" version="1.1" xmlns="http://www.w3.org/2000/svg" xmlns:xlink="http://www.w3.org/1999/xlink">
    <title>审核</title>
    <g id="页面-1" stroke="none" stroke-width="1" fill="none" fill-rule="evenodd">
        <g id="2-1980" transform="translate(-1791.000000, -448.000000)" fill="#999999" fill-rule="nonzero">
            <g id="编组-35" transform="translate(239.000000, 266.000000)">
                <g id="审核" transform="translate(1552.000000, 182.000000)">
                    <path d="M15.1671282,9.35416667 L12.4669699,9.35416667 C11.8682753,9.35416667 11.3277294,9.02909483 11.0939478,8.52873563 L10.1698972,6.55082615 C10.0357991,6.26364943 10.1218354,5.93462644 10.3773734,5.72611351 C11.2901503,4.98186063 11.7852057,3.82507184 11.494462,2.57507184 C11.2068829,1.33764368 10.1044304,0.337643678 8.74109968,0.0792025862 C6.40328323,-0.36404454 4.34513449,1.24407328 4.34513449,3.2887931 C4.34513449,4.2731681 4.82594937,5.15122126 5.58287184,5.75143678 C5.8463212,5.96030891 5.93947785,6.29400144 5.80280854,6.58638649 L4.89537184,8.52873563 C4.66159019,9.02909483 4.12084652,9.35416667 3.52234968,9.35416667 L0.734572785,9.35416667 C0.329509494,9.35416667 0.00118670886,9.65229885 0.00118670886,10.0201149 L0.00118670886,12.6291307 C0.00118670886,12.9969468 0.329509494,13.295079 0.734572785,13.295079 L15.1671282,13.295079 C15.5721915,13.295079 15.9005143,12.9969468 15.9005143,12.6291307 L15.9005143,10.0202945 C15.900712,9.65247845 15.5723892,9.35416667 15.1671282,9.35416667 L15.1671282,9.35416667 Z M14.8237737,14.6142241 L1.08999209,14.6142241 C0.888053797,14.6142241 0.724485759,14.7627514 0.724485759,14.9461207 L0.724485759,15.5959052 C0.724485759,15.7792744 0.888053797,15.9278017 1.08999209,15.9278017 L14.8237737,15.9278017 C15.025712,15.9278017 15.1892801,15.7792744 15.1892801,15.5959052 L15.1892801,14.9461207 C15.1892801,14.762931 15.025712,14.6142241 14.8237737,14.6142241 Z" id="形状"></path>
                </g>
            </g>
        </g>
    </g>
</svg>