<svg xmlns="http://www.w3.org/2000/svg" viewBox="0 0 16 16" class="design-iconfont" width="16" height="16"><g fill="#999" fill-rule="nonzero"><path d="M13.1805625,14 C12.9708909,14 12.7612379,13.9199817 12.6011797,13.7599265 L0.240073356,1.39879374 C-0.0800244521,1.07896333 -0.0800244521,0.559880535 0.240073356,0.240068795 C0.560171165,-0.0800229317 1.07872251,-0.0800229317 1.39882032,0.240068795 L13.7599266,12.6012016 C14.0800245,12.921032 14.0800245,13.4401148 13.7599266,13.7599265 C13.5998871,13.9199631 13.3902154,14 13.1805625,14 Z" transform="translate(1 1)"></path><path d="M0.819456169,14 C0.609784536,14 0.400131581,13.9199817 0.240073356,13.7599265 C-0.0800244521,13.4400961 -0.0800244521,12.9210133 0.240073356,12.6012016 L12.6011797,0.240068795 C12.9212775,-0.0800229318 13.4398288,-0.0800229318 13.7599266,0.240068795 C14.0800245,0.559899213 14.0800245,1.07898201 13.7599266,1.39879375 L1.39882032,13.7599265 C1.23878076,13.9199631 1.02910912,14 0.819456169,14 Z" transform="translate(1 1)"></path></g></svg>