<?xml version="1.0" encoding="UTF-8"?>
<svg width="16px" height="16px" viewBox="0 0 16 16" version="1.1" xmlns="http://www.w3.org/2000/svg" xmlns:xlink="http://www.w3.org/1999/xlink">
    <title>删除</title>
    <g id="页面-1" stroke="none" stroke-width="1" fill="none" fill-rule="evenodd">
        <g id="1-首页更换门户分类" transform="translate(-1378.000000, -384.000000)">
            <g id="删除" transform="translate(1378.000000, 384.000000)">
                <g id="编组" fill="#999999" fill-rule="nonzero">
                    <path d="M8.10052083,0.0098607513 C6.35921875,0.0098607513 4.94595486,1.29732837 4.88581597,2.91368199 L0.826440972,2.91368199 C0.375416667,2.91368199 0.00638888889,3.25531088 0.00638888889,3.6785136 C0.00638888889,4.09917422 0.372690972,4.4433614 0.826458333,4.4433614 L1.73126736,4.4433614 L1.73126736,12.9993199 C1.73126736,14.6054728 2.89850694,15.9184424 4.34185764,15.9184424 L11.6951563,15.9184424 C13.1357813,15.9184424 14.3057465,14.6131315 14.3057465,12.9993199 L14.3057465,4.44846179 L15.125816,4.44846179 C15.5768576,4.44846179 15.9458854,4.10681671 15.9458854,3.68361399 C15.9458854,3.26295337 15.5795833,2.91878238 15.125816,2.91878238 L11.3097396,2.91878238 C11.2577951,1.29734456 9.84180556,0.0098607513 8.10052083,0.0098607513 L8.10052083,0.0098607513 Z M6.42210069,2.91368199 C6.48223958,2.08511982 7.20664931,1.44266516 8.10324653,1.44266516 C8.99984375,1.44266516 9.72425347,2.08766192 9.77619792,2.91368199 L6.42210069,2.91368199 Z M4.33911458,14.4881962 C3.82793403,14.4881962 3.26480903,13.8763277 3.26480903,12.9993199 L3.26480903,4.44846179 L12.7667361,4.44846179 L12.7667361,13.0069624 C12.7667361,13.8814281 12.2036111,14.4958549 11.6924306,14.4958549 L4.33911458,14.4958549 L4.33911458,14.4881962 Z" id="形状"></path>
                    <path d="M5.44074653,12.6500486 C5.81522569,12.6500486 6.12413194,12.3007772 6.12413194,11.8622733 L6.12413194,7.3675842 C6.12413194,6.92908031 5.81796875,6.57979275 5.44074653,6.57979275 C5.06623264,6.57979275 4.75734375,6.92908031 4.75734375,7.3675842 L4.75734375,11.8622733 C4.75734375,12.2982189 5.05803819,12.6500486 5.44074653,12.6500486 Z M7.91463542,12.6500486 C8.28913194,12.6500486 8.59802083,12.3007772 8.59802083,11.8622733 L8.59802083,7.3675842 C8.59802083,6.92908031 8.29185764,6.57979275 7.91463542,6.57979275 C7.54013889,6.57979275 7.23123264,6.92908031 7.23123264,7.3675842 L7.23123264,11.8622733 C7.23123264,12.2982189 7.54013889,12.6500486 7.91463542,12.6500486 L7.91463542,12.6500486 Z M10.5169965,12.6500486 C10.8914931,12.6500486 11.2003993,12.3007772 11.2003993,11.8622733 L11.2003993,7.3675842 C11.2003993,6.92908031 10.8942361,6.57979275 10.5169965,6.57979275 C10.1425,6.57979275 9.83361111,6.92908031 9.83361111,7.3675842 L9.83361111,11.8622733 C9.83361111,12.2982189 10.1315625,12.6500486 10.5169965,12.6500486 Z" id="形状"></path>
                </g>
                <rect id="矩形" x="0" y="0" width="16" height="16"></rect>
            </g>
        </g>
    </g>
</svg>