<svg xmlns="http://www.w3.org/2000/svg" viewBox="0 0 16 16" class="design-iconfont" width="16" height="16"><path d="M13.047379,7.47583763 L11.671371,7.47583763 L11.671371,4.30251289 C11.671371,4.29284794 11.6766633,4.28640464 11.6766633,4.27673969 C11.6766633,4.26546392 11.6748992,4.25418814 11.6748992,4.24291237 C11.6784274,4.21713918 11.6819556,4.19136598 11.6837198,4.16559278 L11.671371,4.16559278 C11.6060988,1.8621134 9.54032258,0.00644329897 7.00176411,0.00644329897 C4.42263105,0.00644329897 2.32510081,1.92171392 2.32510081,4.27673969 L2.32510081,7.47583763 L0.956149194,7.47583763 C0.432207661,7.47583763 0.00352822581,7.86726804 0.00352822581,8.34568299 L0.00352822581,15.1111469 C0.00352822581,15.5895619 0.432207661,15.9809923 0.956149194,15.9809923 L13.0456149,15.9809923 C13.5695565,15.9809923 13.9982413,15.5895619 13.9982413,15.1111469 L13.9982413,8.34407216 C14,7.86726804 13.5713206,7.47583763 13.047379,7.47583763 Z M4.23034274,4.27673969 C4.23034274,2.88015464 5.47404234,1.74613402 7.00352823,1.74613402 C8.51890121,1.74613402 9.75201613,2.86404639 9.77142137,4.2445232 C9.77142137,4.25579897 9.76965726,4.26707474 9.76965726,4.27673969 L9.76965726,7.47583763 L4.23034274,7.47583763 L4.23034274,4.27673969 Z M7.79032258,11.6204897 L7.79032258,13.2506443 C7.79032258,13.6388531 7.44279234,13.9561856 7.01764113,13.9561856 L6.98765121,13.9561856 C6.5625,13.9561856 6.21496976,13.6388531 6.21496976,13.2506443 L6.21496976,11.6204897 C5.84097782,11.3901418 5.59576613,10.9987113 5.59576613,10.5573454 C5.59576613,9.84858247 6.22555444,9.27351804 7.00176411,9.27351804 C7.77797379,9.27351804 8.4077621,9.84858247 8.4077621,10.5573454 C8.4077621,11.0003222 8.1625504,11.3901418 7.79032258,11.6204897 Z" transform="translate(1)" fill="#999" fill-rule="nonzero"></path></svg>