<svg xmlns="http://www.w3.org/2000/svg" viewBox="0 0 16 16" class="design-iconfont"><g fill="#4676EF" fill-rule="nonzero"><path d="M7.96115057,0.00978571429 C3.56434659,0.00978571429 5.32670455e-05,3.58691071 5.32670455e-05,7.99953571 C5.32670455e-05,12.4121607 3.56434659,15.9892857 7.96115057,15.9892857 C12.3579545,15.9892857 15.9222479,12.4121429 15.9222479,7.99953571 C15.9222479,3.58692857 12.3579368,0.00978571429 7.96115057,0.00978571429 Z M7.95754616,14.7162857 C4.27647372,14.7162857 1.29238281,11.7214643 1.29238281,8.02714286 C1.29238281,4.33282143 4.27647372,1.338 7.95754616,1.338 C11.6386186,1.338 14.6227095,4.33282143 14.6227095,8.02714286 C14.6227095,11.7214643 11.6386186,14.7162857 7.95754616,14.7162857 Z"></path><path d="M11.1643686,5.60968277 L7.08300781,9.71444643 L7.08300781,9.71444643 L4.95085367,7.57003412 C4.71709419,7.33493071 4.33700572,7.33384124 4.10190231,7.56760072 C4.10109428,7.56840414 4.10028853,7.56920985 4.09948509,7.57001786 C3.86399082,7.80684793 3.86398434,8.18940851 4.09947058,8.42624656 L6.65851957,10.9999857 C6.89230053,11.2351087 7.27242228,11.2361966 7.50754525,11.0024156 C7.50834682,11.0016186 7.50914613,11.0008194 7.50994318,11.0000179 L7.93567116,10.5719107 L12.0170285,6.46721513 C12.2528766,6.2300184 12.2528762,5.84687483 12.0170277,5.60967857 C11.7829113,5.37422441 11.4022492,5.3731399 11.1667951,5.60725626 C11.1659839,5.60806278 11.1651751,5.60887163 11.1643686,5.60968277 Z" stroke="#4676EF"></path></g></svg>