<?xml version="1.0" encoding="UTF-8"?>
<svg width="16px" height="16px" viewBox="0 0 16 16" version="1.1" xmlns="http://www.w3.org/2000/svg" xmlns:xlink="http://www.w3.org/1999/xlink">
    <title>下载</title>
    <g id="页面-1" stroke="none" stroke-width="1" fill="none" fill-rule="evenodd">
        <g id="1-首页" transform="translate(-1314.000000, -503.000000)" fill="#999999" fill-rule="nonzero">
            <g id="下载" transform="translate(1314.000000, 503.000000)">
                <path d="M14.4060284,11.1666667 L14.4060284,14.2083333 C14.4060284,14.36875 14.2664007,14.5 14.0957447,14.5 L1.86170213,14.5 C1.6910461,14.5 1.55141844,14.36875 1.55141844,14.2083333 L1.55141844,11.1666667 C1.55141844,11.0520833 1.4516844,10.9583333 1.32978723,10.9583333 L0.221631206,10.9583333 C0.0997340426,10.9583333 0,11.0520833 0,11.1666667 L0,14.7083333 C0,15.3979167 0.596187943,15.9583333 1.32978723,15.9583333 L14.6276596,15.9583333 C15.3612589,15.9583333 15.9574468,15.3979167 15.9574468,14.7083333 L15.9574468,11.1666667 C15.9574468,11.0520833 15.8577128,10.9583333 15.7358156,10.9583333 L14.6276596,10.9583333 C14.5057624,10.9583333 14.4060284,11.0520833 14.4060284,11.1666667 Z" id="路径"></path>
                <path d="M8.75443262,0.729166667 L8.75443262,10.09375 L12.6019504,6.47708333 C12.9055851,6.19166667 13.3953901,6.19166667 13.6990248,6.47708333 C14.0026596,6.7625 14.0026596,7.22291667 13.6990248,7.50833333 L8.52836879,12.36875 C8.51950355,12.3770833 8.5106383,12.3854167 8.49955674,12.39375 C8.49512411,12.3979167 8.49069149,12.4020833 8.48625887,12.4041667 C8.48182624,12.4083333 8.47739362,12.4125 8.47074468,12.4166667 C8.46409574,12.4208333 8.45966312,12.425 8.45301418,12.4291667 C8.44858156,12.43125 8.44414894,12.4354167 8.44193262,12.4375 L8.42198582,12.45 C8.41755319,12.4520833 8.41533688,12.4541667 8.41090426,12.45625 C8.40425532,12.4604167 8.39760638,12.4645833 8.38874113,12.46875 C8.38430851,12.4708333 8.3820922,12.4729167 8.37765957,12.475 C8.37101064,12.4791667 8.3643617,12.4833333 8.35549645,12.4854167 C8.35106383,12.4875 8.34663121,12.4895833 8.34441489,12.4916667 C8.33776596,12.4958333 8.33111702,12.4979167 8.32446809,12.5020833 L8.31117021,12.5083333 C8.30452128,12.5104167 8.29787234,12.5145833 8.29343972,12.5166667 C8.28900709,12.51875 8.28235816,12.5208333 8.27792553,12.5229167 C8.2712766,12.525 8.26684397,12.5270833 8.26019504,12.5291667 L8.24024823,12.5354167 C8.2358156,12.5375 8.23138298,12.5395833 8.22473404,12.5395833 C8.21808511,12.5416667 8.21143617,12.54375 8.20257092,12.5458333 C8.1981383,12.5479167 8.19370567,12.5479167 8.18927305,12.55 C8.1804078,12.5520833 8.17375887,12.5541667 8.16489362,12.55625 C8.16046099,12.55625 8.15602837,12.5583333 8.15159574,12.5583333 C8.1427305,12.5604167 8.13608156,12.5625 8.12721631,12.5625 C8.12278369,12.5625 8.11835106,12.5645833 8.11391844,12.5645833 C8.10505319,12.5666667 8.09840426,12.5666667 8.08953901,12.56875 C8.08510638,12.56875 8.08067376,12.5708333 8.07402482,12.5708333 C8.06737589,12.5708333 8.05851064,12.5729167 8.0518617,12.5729167 C8.04521277,12.5729167 8.03856383,12.5729167 8.03191489,12.575 C8.02526596,12.575 8.02083333,12.575 8.0141844,12.5770833 C7.98758865,12.5791667 7.96320922,12.5791667 7.93661348,12.5770833 C7.92996454,12.5770833 7.92553191,12.5770833 7.91888298,12.575 C7.91223404,12.575 7.90558511,12.575 7.89893617,12.5729167 C7.89228723,12.5729167 7.88342199,12.5708333 7.87677305,12.5708333 C7.87234043,12.5708333 7.8679078,12.56875 7.86125887,12.56875 C7.85239362,12.5666667 7.84574468,12.5666667 7.83687943,12.5645833 C7.83244681,12.5645833 7.82801418,12.5625 7.82358156,12.5625 C7.81471631,12.5604167 7.80806738,12.5583333 7.79920213,12.5583333 C7.7947695,12.5583333 7.79033688,12.55625 7.78590426,12.55625 C7.77703901,12.5541667 7.77039007,12.5520833 7.76152482,12.55 C7.7570922,12.5479167 7.75265957,12.5479167 7.74822695,12.5458333 C7.74157801,12.54375 7.73492908,12.5416667 7.72606383,12.5395833 C7.72163121,12.5375 7.71498227,12.5375 7.71054965,12.5354167 L7.69060284,12.5291667 C7.6839539,12.5270833 7.67952128,12.525 7.67287234,12.5229167 C7.66843972,12.5208333 7.66179078,12.51875 7.65735816,12.5166667 C7.65070922,12.5145833 7.64406028,12.5104167 7.63962766,12.5083333 L7.62632979,12.5020833 C7.61968085,12.4979167 7.61303191,12.4958333 7.60638298,12.4916667 C7.60195035,12.4895833 7.59751773,12.4875 7.59530142,12.4854167 C7.58865248,12.48125 7.58200355,12.4770833 7.5731383,12.4729167 C7.56870567,12.4708333 7.56648936,12.46875 7.56205674,12.4666667 C7.5554078,12.4625 7.54875887,12.4583333 7.53989362,12.4541667 C7.53546099,12.4520833 7.53324468,12.45 7.52881206,12.4479167 C7.52216312,12.44375 7.51551418,12.4395833 7.50886525,12.4333333 C7.50443262,12.43125 7.50221631,12.4270833 7.49778369,12.425 C7.49113475,12.4208333 7.48670213,12.4166667 7.48005319,12.4125 C7.47562057,12.4083333 7.47118794,12.4041667 7.46453901,12.4 C7.46010638,12.3958333 7.45567376,12.3916667 7.45124113,12.3895833 L7.42464539,12.3645833 L2.25842199,7.50833333 C1.95478723,7.22291667 1.95478723,6.7625 2.25842199,6.47708333 C2.56205674,6.19166667 3.0518617,6.19166667 3.35549645,6.47708333 L7.20301418,10.09375 L7.20301418,0.729166667 C7.20301418,0.327083333 7.55097518,0 7.9787234,0 C8.40647163,0 8.75443262,0.327083333 8.75443262,0.729166667 Z" id="路径"></path>
            </g>
        </g>
    </g>
</svg>