<?xml version="1.0" encoding="UTF-8"?>
<svg width="16px" height="16px" viewBox="0 0 16 16" version="1.1" xmlns="http://www.w3.org/2000/svg" xmlns:xlink="http://www.w3.org/1999/xlink">
    <title>编辑</title>
    <g id="页面-1" stroke="none" stroke-width="1" fill="none" fill-rule="evenodd">
        <g id="1-首页更换门户分类" transform="translate(-1346.000000, -384.000000)" fill="#4676EF" fill-rule="nonzero">
            <g id="编辑" transform="translate(1346.000000, 384.000000)">
                <path d="M15.1533385,14.3596626 C15.5997671,14.3596626 15.9607919,14.7162577 15.9607919,15.1572086 C15.9588509,15.5981595 15.5978261,15.9547546 15.1513975,15.9547546 L0.815217391,15.9547546 C0.36878882,15.9547546 0.00776397516,15.5981595 0.00776397516,15.1572086 C0.00776397516,14.7162577 0.36878882,14.3596626 0.815217391,14.3596626 L15.1533385,14.3596626 Z M12.0652174,0.366180982 L15.0427019,3.30521472 C15.308618,3.5678681 15.4406056,3.93980061 15.4017857,4.32515337 C15.3687888,4.65682515 15.2135093,4.97507669 14.9650621,5.22047546 L12.9502521,7.21115889 C12.9414895,7.22069201 12.932451,7.2300637 12.9231366,7.2392638 L7.81832298,12.2814417 C7.50582298,12.5901074 7.10015528,12.8048313 6.67895963,12.8834356 L2.89402174,13.5889571 C2.82220497,13.6004601 2.75427019,13.6062117 2.6882764,13.6062117 C2.40877329,13.6062117 2.14091615,13.4988497 1.94293478,13.3052147 C1.69642857,13.0636503 1.58967391,12.7128067 1.6556677,12.3696319 L2.36995342,8.62921779 C2.44953416,8.21127301 2.66498447,7.8125 2.97942547,7.50383436 L8.08423913,2.46165644 L8.10769887,2.43672538 C8.11084511,2.43351254 8.11402417,2.43031969 8.11723602,2.42714724 L8.12676398,2.41784477 L10.1261646,0.442868098 C10.3746118,0.197469325 10.6968168,0.044095092 11.0326087,0.0115030675 C11.4188665,-0.0268404908 11.7993012,0.101610429 12.0652174,0.366180982 Z M8.68876398,4.11784477 L4.12072981,8.63113497 C4.03532609,8.7154908 3.97709627,8.8190184 3.95768634,8.92446319 L3.39479814,11.8711656 L6.37810559,11.315184 C6.48486025,11.2960123 6.58967391,11.2384969 6.67507764,11.1541411 L11.244764,6.64184477 L8.68876398,4.11784477 Z M11.1354814,1.70245399 L9.82976398,2.99184477 L12.383764,5.51384477 L13.6878882,4.22546012 L11.1354814,1.70245399 Z" id="形状结合"></path>
            </g>
        </g>
    </g>
</svg>