<svg xmlns="http://www.w3.org/2000/svg" viewBox="0 0 16 16" class="design-iconfont" width="16" height="16"><path d="M12.9769606,7.46332908 L4.20606091,7.46332908 L4.20606091,4.27295918 C4.20606091,2.88105867 5.4426254,1.74904337 6.96307723,1.74904337 C8.48352906,1.74904337 9.72009355,2.88105867 9.72009355,4.27295918 C9.72009355,4.75127551 10.1433121,5.14030612 10.6675458,5.14030612 C11.1917795,5.14030612 11.614998,4.7528699 11.614998,4.27295918 C11.614998,1.92442602 9.52851314,0.0143494898 6.96307723,0.0143494898 C4.39764132,0.0143494898 2.31289809,1.92602041 2.31289809,4.27295918 L2.31289809,7.46332908 L0.95093551,7.46332908 C0.430185111,7.46332908 0.00348328025,7.85395408 0.00348328025,8.33067602 L0.00348328025,15.078125 C0.00348328025,15.5548469 0.430185111,15.9454719 0.95093551,15.9454719 L12.9769606,15.9454719 C13.497711,15.9454719 13.9244128,15.5548469 13.9244128,15.078125 L13.9244128,8.32908163 C13.9244128,7.85235969 13.497711,7.46332908 12.9769606,7.46332908 Z M7.74681529,11.5975765 L7.74681529,13.223852 C7.74681529,13.6112883 7.4002289,13.9285714 6.97701035,13.9285714 L6.94914411,13.9285714 C6.52592556,13.9285714 6.17933917,13.6112883 6.17933917,13.223852 L6.17933917,11.5975765 C5.80836982,11.3679847 5.56454021,10.9789541 5.56454021,10.5373087 C5.56454021,9.82940051 6.19153065,9.25701531 6.96307723,9.25701531 C7.73636545,9.25701531 8.36162352,9.8309949 8.36162352,10.5373087 C8.36335589,10.9773597 8.11952627,11.3663903 7.74681529,11.5975765 L7.74681529,11.5975765 Z" transform="translate(1)" fill="#999" fill-rule="nonzero"></path></svg>