<svg xmlns="http://www.w3.org/2000/svg" viewBox="0 0 18 18" class="design-iconfont" width="16" height="16"><path d="M3.83568182,15.8147518 C2.45622466,15.8147518 1.33222254,14.6164539 1.33222254,13.1458156 L1.33222254,4.86666667 C1.33222254,4.81219858 1.2896467,4.78496454 1.25558603,4.78496454 L0.582887783,4.78496454 C0.259311412,4.78496454 0.00385638298,4.53078014 0.00385638298,4.22212766 L0.00385638298,1.89815603 C0.00385638298,0.854184397 0.855373147,0.00085106383 1.91125393,0.00085106383 L11.3205142,0.00085106383 C12.3678798,0.00085106383 13.2279117,0.908652482 13.2279117,2.03432624 L13.2279117,10.5948936 C13.2279117,10.6493617 13.2704876,10.6765957 13.3045482,10.6765957 L15.424825,10.6765957 C15.7484014,10.6765957 16.0038564,10.9489362 16.0038564,11.2939007 L16.0038564,13.7631206 C16.0038564,14.8797163 15.1523396,15.7965957 14.0964588,15.7965957 L3.83568182,15.8147518 Z M13.3130634,11.7841135 C13.2619724,11.7841135 13.2364269,11.8295035 13.2364269,11.8658156 L13.2364269,13.7812766 C13.2364269,14.2987234 13.6281246,14.7163121 14.1134892,14.7163121 C14.5988537,14.7163121 14.9905514,14.2987234 14.9905514,13.7812766 L14.9905514,11.8658156 C14.9905514,11.8113475 14.9479756,11.7841135 14.9139149,11.7841135 L13.3130634,11.7841135 L13.3130634,11.7841135 Z M2.43919433,4.77588652 C2.38810332,4.77588652 2.36255782,4.8212766 2.36255782,4.85758865 L2.36255782,13.1276596 C2.36255782,13.9991489 3.0267409,14.698156 3.83568182,14.698156 L12.2912433,14.698156 C12.3167888,14.698156 12.3423343,14.68 12.3593646,14.652766 C12.376395,14.6255319 12.376395,14.5982979 12.3593646,14.5710638 C12.2571826,14.3259574 12.2060916,14.044539 12.2060916,13.7631206 L12.2060916,2.04340426 C12.2060916,1.52595745 11.8143939,1.10836879 11.3290293,1.10836879 C10.8436648,1.10836879 10.4519671,1.52595745 10.4519671,2.04340426 L10.4519671,4.21304965 C10.4519671,4.53078014 10.1965121,4.77588652 9.87293568,4.77588652 L2.43919433,4.77588652 Z M1.90273877,1.10836879 C1.41737421,1.10836879 1.0256765,1.46241135 1.0256765,1.89815603 L1.0256765,3.59574468 C1.0256765,3.65021277 1.06825234,3.67744681 1.10231301,3.67744681 L9.31944978,3.67744681 C9.37054079,3.67744681 9.39608629,3.63205674 9.39608629,3.59574468 L9.39608629,2.04340426 C9.39608629,1.76198582 9.4471773,1.48056738 9.54935931,1.23546099 C9.55787448,1.21730496 9.55787448,1.19914894 9.54935931,1.18099291 L9.54935931,1.16283688 C9.53232897,1.12652482 9.50678347,1.10836879 9.48123797,1.10836879 L1.90273877,1.10836879 Z M4.35510705,11.8204255 C4.06559135,11.8204255 3.83568182,11.5753191 3.83568182,11.2666667 C3.83568182,10.9580142 4.06559135,10.7129078 4.35510705,10.7129078 L10.1965121,10.7129078 C10.4860278,10.7129078 10.7159373,10.9580142 10.7159373,11.2666667 C10.7159373,11.5753191 10.4860278,11.8204255 10.1965121,11.8204255 L4.35510705,11.8204255 Z M4.35510705,8.77021277 C4.06559135,8.77021277 3.83568182,8.52510638 3.83568182,8.2164539 C3.83568182,7.90780142 4.06559135,7.66269504 4.35510705,7.66269504 L10.1965121,7.66269504 C10.4860278,7.66269504 10.7159373,7.90780142 10.7159373,8.2164539 C10.7159373,8.52510638 10.4860278,8.77021277 10.1965121,8.77021277 L4.35510705,8.77021277 Z" transform="translate(1 1)" fill="#999" fill-rule="nonzero" stroke="#999"></path></svg>