<svg xmlns="http://www.w3.org/2000/svg" viewBox="0 0 16 16" class="design-iconfont" width="16" height="16"><path d="M11.5224576,5 C11.7860127,5 12,5.22371638 12,5.50122249 C12,5.77628362 11.7860127,6 11.5224576,6 L4.47761742,6 C4.34871451,5.99775008 4.22597735,5.94380277 4.13641662,5.85003022 C4.04685589,5.75625767 3.99781093,5.63034438 4,5.5 C4,5.22371638 4.21406239,5 4.47761742,5 L11.5224576,5 Z M11.5224592,8 C11.7860134,8 12,8.22371638 12,8.5 C12,8.77628362 11.7860134,9 11.5224592,9 L4.47763863,9 C4.34852267,8.99775246 4.22559976,8.9436366 4.13600449,8.84959822 C4.04640922,8.75555985 3.99750882,8.62933152 4.00009781,8.49877751 C4.00009781,8.22371638 4.21408445,8 4.47763863,8 L11.5224592,8 Z M5.46909678,11 L10.5309993,11 C10.7898402,11 11,11.2237164 11,11.5 C11,11.7762836 10.7898402,12 10.5309993,12 L5.46909678,12 C5.34228987,11.9977525 5.22156525,11.9436366 5.13357226,11.8495982 C5.04557926,11.7555598 4.99755338,11.6293315 5.00009606,11.4987775 C5.00009606,11.2237164 5.21025588,11 5.46909678,11 Z M2.28191304,1 L4.43304348,1 C4.65704348,1 4.86643478,1.11666667 4.98086957,1.30916667 L5.6626087,2.43616667 C5.71858171,2.53149108 5.82360481,2.59072148 5.93773913,2.59133333 L10.0598261,2.59133333 C10.1730435,2.59133333 10.2765217,2.533 10.3349565,2.43616667 L11.0166957,1.30916667 C11.1287075,1.11986206 11.3374486,1.0020586 11.5645217,1 L13.7168696,1 C14.4278261,1 15,1.56933333 15,2.27166667 L15,13.7283333 C15,14.4306667 14.4266087,15 13.718087,15 L2.28191304,15 C1.57217391,15 1,14.4306667 1,13.7283333 L1,2.27166667 C1,1.5705 1.5733913,1 2.28191304,1 Z M4.27617937,2 L2.31934315,2 C2.23316399,2.00121702 2.15103992,2.03524443 2.09112525,2.09456015 C2.03121058,2.15387587 1.99843978,2.23359475 2,2.31609417 L2,13.6839058 C2,13.8575839 2.14276832,14 2.31934315,14 L13.6806036,14 C13.7667827,13.998783 13.8489068,13.9647556 13.9088215,13.9054399 C13.9687362,13.8461241 14.001507,13.7664053 14,13.6839058 L14,2.31609417 C14.001507,2.23359475 13.9687362,2.15387587 13.9088215,2.09456015 C13.8489068,2.03524443 13.7667827,2.00121702 13.6806036,2 L11.7237674,2 L11.1396191,2.96565033 C10.9098299,3.34658433 10.495,3.57931301 10.0475158,3.57931301 L5.9524309,3.57931301 C5.50494673,3.57931301 5.0901168,3.34658433 4.86032763,2.96565033 L4.27617937,2 Z M9.37461647,1 C9.71976485,1 10,1.22371638 10,1.50122249 C10,1.77628362 9.71976485,2 9.37461647,2 L6.62548181,2 C6.45667217,1.99775008 6.29593711,1.94380277 6.1786495,1.85003022 C6.06136188,1.75625767 5.99713323,1.63034438 6.00009828,1.5 C6.00009828,1.22371638 6.28033343,1 6.62548181,1 L9.37461647,1 Z" stroke="#979797" fill="#999" fill-rule="nonzero"></path></svg>