<svg xmlns="http://www.w3.org/2000/svg" viewBox="0 0 16 16" class="design-iconfont" width="16" height="16"><path d="M4.19984076,1.33928571 L1.99044586,1.33928571 C1.68264331,1.33928571 1.43312102,1.57247024 1.43312102,1.86011905 L1.43312102,14.1369048 C1.43312102,14.4245536 1.68264331,14.6577381 1.99044586,14.6577381 L2.62738854,14.6577381 L2.62738854,10.6632254 C2.62739129,10.3277591 2.76999392,10.0060336 3.02382564,9.7688244 L4.04402866,8.81542039 C4.29785762,8.5782086 4.64212444,8.44494305 5.00109475,8.44494048 L10.9224721,8.44494048 C11.2814424,8.44494305 11.6257093,8.5782086 11.8795382,8.81542039 L12.8997412,9.7688244 C13.153573,10.0060336 13.2961756,10.3277591 13.2961783,10.6632254 L13.2961783,14.6577381 L13.933121,14.6577381 C14.2409236,14.6577381 14.4904459,14.4245536 14.4904459,14.1369048 L14.4904459,5.08761161 C14.4904459,4.94947153 14.4317329,4.81698787 14.3272094,4.71930804 L11.7237261,2.28632813 L11.7237261,5.39434524 C11.7237261,5.76417411 11.4029061,6.0639881 11.0071656,6.0639881 L4.91640127,6.0639881 C4.52066083,6.0639881 4.19984076,5.76417411 4.19984076,5.39434524 L4.19984076,1.33928571 Z M5.63296178,1.33928571 L5.63296178,4.72470238 L10.2906051,4.72470238 L10.2906051,1.33928571 L5.63296178,1.33928571 Z M15.9235669,5.08761161 L15.9235669,14.1369048 C15.9235669,15.1642113 15.0324045,15.9970238 13.933121,15.9970238 L1.99044586,15.9970238 C0.89116242,15.9970238 0,15.1642113 0,14.1369048 L0,1.86011905 C0,0.8328125 0.89116242,0 1.99044586,0 L10.4794984,0 C11.0074016,0 11.5136822,0.195982787 11.8869626,0.544828869 L15.3405852,3.77230283 C15.7138605,4.12114071 15.9235669,4.59426399 15.9235669,5.08759301 L15.9235669,5.08761161 Z M10.8894904,9.78422619 L5.03407643,9.78422619 L4.06050955,10.6940476 L4.06050955,14.6577381 L11.8630573,14.6577381 L11.8630573,10.6940476 L10.8894904,9.78422619 Z M8.33001592,2.37165179 C8.33001592,2.00182292 8.65083599,1.70200893 9.04657643,1.70200893 C9.44231688,1.70200893 9.76313694,2.00182292 9.76313694,2.37165179 L9.76313694,3.58377976 C9.76313694,3.95362723 9.44231688,4.25342262 9.04657643,4.25342262 C8.65083599,4.25342262 8.33001592,3.95362723 8.33001592,3.58377976 L8.33001592,2.37165179 Z" fill="#4676EF" fill-rule="nonzero"></path></svg>