<?xml version="1.0" encoding="UTF-8"?>
<svg width="16px" height="16px" viewBox="0 0 16 16" version="1.1" xmlns="http://www.w3.org/2000/svg" xmlns:xlink="http://www.w3.org/1999/xlink">
    <title>操作设置</title>
    <g id="页面-1" stroke="none" stroke-width="1" fill="none" fill-rule="evenodd">
        <g id="1-首页更换门户分类" transform="translate(-1378.000000, -338.000000)">
            <g id="操作设置" transform="translate(1378.000000, 338.000000)">
                <rect id="矩形" x="0" y="0" width="16" height="16"></rect>
                <g id="编组" transform="translate(1.000000, 0.000000)" fill="#999999" fill-rule="nonzero">
                    <path d="M6.51900155,0.132824797 C6.82575781,-0.0442810142 7.20369711,-0.0442810142 7.51045338,0.132824797 L7.51045338,0.132824797 L13.528566,3.63264975 C13.8334815,3.8086843 14.0221667,4.13322281 14.0242997,4.48529831 L14.0242997,4.48529831 L14.0242997,11.5146918 C14.0257037,11.8703104 13.8365448,12.1994469 13.528566,12.3772549 L13.528566,12.3772549 L7.51045338,15.8671653 C7.20369711,16.0442711 6.82575781,16.0442711 6.51900155,15.8671653 L6.51900155,15.8671653 L0.500888953,12.3475113 C0.192910122,12.1697034 0.00375121601,11.8405669 0.00515519857,11.4849482 L0.00515519857,11.4849482 L0.00515519857,4.49521284 C0.0037512104,4.13959418 0.192910117,3.81045768 0.500888953,3.63264975 L0.500888953,3.63264975 Z M7.01472745,2.14547202 L1.9880667,5.06034038 L1.9880667,10.9099062 L7.01472745,13.8247745 L12.0413882,10.9099062 L12.0413882,5.06034038 L7.01472745,2.14547202 Z M7.01472745,4.96119519 C8.65741863,4.96119519 9.98908294,6.2928595 9.98908294,7.93555067 C9.98908294,9.57824185 8.65741863,10.9099062 7.01472745,10.9099062 C5.37203628,10.9099062 4.04037197,9.57824185 4.04037197,7.93555067 C4.04037197,6.2928595 5.37203628,4.96119519 7.01472745,4.96119519 Z M7.01472745,6.94409884 C6.46716373,6.94409884 6.02327563,7.38798695 6.02327563,7.93555067 C6.02327563,8.4831144 6.46716373,8.9270025 7.01472745,8.9270025 C7.56229118,8.9270025 8.00617928,8.4831144 8.00617928,7.93555067 C8.00617928,7.38798695 7.56229118,6.94409884 7.01472745,6.94409884 Z" id="形状结合"></path>
                </g>
            </g>
        </g>
    </g>
</svg>