<svg xmlns="http://www.w3.org/2000/svg" viewBox="0 0 16 16" class="design-iconfont"><path d="M13.5384615,0.5 C14.0801254,0.5 14.57051,0.719552672 14.9254787,1.07452132 C15.2410064,1.390049 15.4495387,1.81257202 15.4919838,2.28299848 L15.5,2.46153847 L15.5,13.5384615 C15.5,14.0801254 15.2804473,14.57051 14.9254787,14.9254787 C14.609951,15.2410064 14.187428,15.4495387 13.7170015,15.4919838 L13.5384615,15.5 L2.46153847,15.5 C1.91987458,15.5 1.42948996,15.2804473 1.07452132,14.9254787 C0.758993632,14.609951 0.550461285,14.187428 0.508016167,13.7170015 L0.5,13.5384615 L0.5,2.46153847 C0.5,1.91987458 0.719552672,1.42948996 1.07452132,1.07452132 C1.390049,0.758993632 1.81257202,0.550461285 2.28299848,0.508016167 L2.46153847,0.5 L13.5384615,0.5 Z M13.5384615,0.730769234 L2.46153847,0.730769234 L2.28457737,0.739705001 C1.87729361,0.781066919 1.51175648,0.963643133 1.23769981,1.23769981 C0.92449218,1.55090743 0.730769234,1.98359974 0.730769234,2.46153847 L0.730769234,2.46153847 L0.730769234,13.5384615 L0.739705001,13.7154226 C0.781066919,14.1227064 0.963643133,14.4882435 1.23769981,14.7623002 C1.55090743,15.0755078 1.98359974,15.2692308 2.46153847,15.2692308 L2.46153847,15.2692308 L13.5384615,15.2692308 L13.7154226,15.260295 C14.1227064,15.2189331 14.4882435,15.0363569 14.7623002,14.7623002 C15.0755078,14.4490926 15.2692308,14.0164003 15.2692308,13.5384615 L15.2692308,13.5384615 L15.2692308,2.46153847 L15.260295,2.28457737 C15.2189331,1.87729361 15.0363569,1.51175648 14.7623002,1.23769981 C14.4490926,0.92449218 14.0164003,0.730769234 13.5384615,0.730769234 L13.5384615,0.730769234 Z M5.49432641,3.58645972 L11.5797497,7.74089042 C11.6551454,7.79383108 11.7000244,7.88018161 11.7000244,7.9723077 C11.7000244,8.04140226 11.67478,8.10724807 11.6281748,8.15973506 L11.5745933,8.20739465 L5.86159817,12.3278402 C5.80684439,12.3672825 5.74656768,12.3888506 5.68623132,12.3940684 C5.61943488,12.3998448 5.55302516,12.3864437 5.49444525,12.3583663 C5.44001633,12.3322785 5.39167357,12.2933072 5.35875348,12.2422581 C5.34048136,12.2139236 5.32757052,12.1818222 5.32099353,12.1468373 L5.316,12.0923077 L5.316,3.85230769 C5.316,3.79583363 5.3313453,3.74485319 5.35876282,3.70235991 C5.39165529,3.65138125 5.43994908,3.61247279 5.49432641,3.58645972 Z M5.54676923,3.67683725 L5.54676923,12.2704514 L11.5073446,7.9728479 L5.54676923,3.67683725 Z" fill="#999" fill-rule="nonzero" stroke="#999"></path></svg>