<svg xmlns="http://www.w3.org/2000/svg" viewBox="0 0 16 16" class="design-iconfont" width="16" height="16"><path d="M15.9329539,8.23942101 L15.9329539,14.6607418 C15.9329539,15.3700213 15.3391173,15.945006 14.6065827,15.945006 L1.34287088,15.945006 C0.610336301,15.945006 0.0164996964,15.3700213 0.0164996964,14.6607418 L0.0164996964,7.70773565 C0.0164996964,7.35309589 0.313417999,7.06560357 0.679685286,7.06560357 C1.04595257,7.06560357 1.34287088,7.35309589 1.34287088,7.70773565 L1.34287088,14.0186097 C1.34287088,14.3732495 1.63978918,14.6607418 2.00605647,14.6607418 L13.9433971,14.6607418 C14.3096644,14.6607418 14.6065827,14.3732495 14.6065827,14.0186097 L14.6065827,7.70773565 C14.6065827,7.35309589 14.903501,7.06560357 15.2697683,7.06560357 C15.6360356,7.06560357 15.9329539,7.35309589 15.9329539,7.70773565 L15.9329539,8.23942101 Z M4.65879883,10.8079493 L11.2906547,10.8079493 C11.656922,10.8079493 11.9538403,11.0954416 11.9538403,11.4500814 C11.9538403,11.8047212 11.656922,12.0922135 11.2906547,12.0922135 L4.65879883,12.0922135 C4.29253154,12.0922135 3.99561324,11.8047212 3.99561324,11.4500814 C3.99561324,11.0954416 4.29253154,10.8079493 4.65879883,10.8079493 Z M5.32198442,8.23942101 L10.6274691,8.23942101 C10.9937364,8.23942101 11.2906547,8.52691333 11.2906547,8.88155309 C11.2906547,9.23619284 10.9937364,9.52368517 10.6274691,9.52368517 L5.32198442,9.52368517 C4.95571713,9.52368517 4.65879883,9.23619284 4.65879883,8.88155309 C4.65879883,8.52691333 4.95571713,8.23942101 5.32198442,8.23942101 L5.32198442,8.23942101 Z M8.63791237,2.19438961 L8.63791237,6.31302477 C8.63791238,6.54243647 8.51150992,6.75442163 8.30631958,6.86912749 C8.10112924,6.98383334 7.84832431,6.98383334 7.64313397,6.86912749 C7.43794363,6.75442163 7.31154118,6.54243647 7.31154119,6.31302477 L7.31154119,2.19438961 L5.62970253,3.82283657 C5.36948251,4.06618678 4.95584975,4.06270652 4.70003666,3.81501448 C4.44422356,3.56732243 4.4406292,3.16682088 4.69195811,2.91486181 L7.50585456,0.190295395 C7.76482844,-0.0603813711 8.18462511,-0.0603813711 8.44359899,0.190295395 L11.2574954,2.91486181 C11.4298949,3.07608478 11.499036,3.31483168 11.4383443,3.53933996 C11.3776526,3.76384823 11.1965731,3.93917916 10.9647039,3.99794416 C10.7328347,4.05670916 10.48626,3.98976303 10.319751,3.82283657 L8.63791237,2.19438961 L8.63791237,2.19438961 Z" fill="#999" fill-rule="nonzero"></path></svg>