<svg xmlns="http://www.w3.org/2000/svg" viewBox="0 0 16 16" class="design-iconfont"><path d="M2.55555556,6.22222222 C2.55555556,3.64855556 4.64855556,1.55555556 7.22222222,1.55555556 C9.79588889,1.55555556 11.8888889,3.64855556 11.8888889,6.22222222 C11.8888889,8.79588889 9.79588889,10.8888889 7.22222222,10.8888889 C4.64855556,10.8888889 2.55555556,8.79588889 2.55555556,6.22222222 L2.55555556,6.22222222 Z M15,12.9002222 L12.1331111,10.0333333 C12.9521111,8.97944444 13.4444444,7.66033333 13.4444444,6.22222222 C13.4444444,2.786 10.6584444,0 7.22222222,0 C3.786,0 1,2.786 1,6.22222222 C1,9.65844444 3.786,12.4444444 7.22222222,12.4444444 C8.66033333,12.4444444 9.97944444,11.9521111 11.0333333,11.1331111 L13.9002222,14 L15,12.9002222 Z" fill="#8A8A8A" fill-rule="evenodd"></path></svg>